# File created by Blade
# Date/Time:  Thu Jan 22 15:50:06 2015
#---------------------------------------------------------
:version 1.10
:name HOM
:units
  mass 1.0
  length 1.000000
  angle deg
:documentation
     Acclaim Skeleton File
:root
   axis xyz
   order TX TY TZ RX RY RZ
   position 0.000000 0.000000 0.000000
   orientation 0 0 0
:bonedata
   begin
      id 1
      name RightUpLeg_dum
      direction -1.000000 0.000000 0.000000
      length 3.766986
      axis 0.0 0.0 0.0 xyz
   end
   begin
      id 2
      name LeftUpLeg_dum
      direction 1.000000 0.000000 0.000000
      length 3.766986
      axis 0.0 0.0 0.0 xyz
   end
   begin
      id 3
      name Spine_dum
      direction 0.000000 1.000000 0.000000
      length 7.779697
      axis 0.0 0.0 0.0 xyz
   end
   begin
      id 4
      name RightUpLeg
      direction 0.000000 -1.000000 0.000000
      length 18.017682
      axis 0.0 0.0 0.0 xyz
      dof rx ry rz
   end
   begin
      id 5
      name RightLeg
      direction 0.000000 -1.000000 0.000000
      length 16.881075
      axis 0.0 0.0 0.0 xyz
      dof rx ry rz
   end
   begin
      id 6
      name RightFoot
      direction 0.000000 -0.258819 0.965926
      length 5.770812
      axis 15.0 0.0 0.0 xyz
      dof rx ry rz
   end
   begin
      id 7
      name RightToeBase
      direction 0.000000 0.000000 1.000000
      length 2.952750
      axis 0.0 0.0 0.0 xyz
      dof rx ry rz
   end
   begin
      id 8
      name LeftUpLeg
      direction 0.000000 -1.000000 0.000000
      length 18.017682
      axis 0.0 0.0 0.0 xyz
      dof rx ry rz
   end
   begin
      id 9
      name LeftLeg
      direction 0.000000 -1.000000 0.000000
      length 16.881075
      axis 0.0 0.0 0.0 xyz
      dof rx ry rz
   end
   begin
      id 10
      name LeftFoot
      direction 0.000000 -0.258819 0.965926
      length 5.770812
      axis 15.0 0.0 0.0 xyz
      dof rx ry rz
   end
   begin
      id 11
      name LeftToeBase
      direction 0.000000 0.000000 1.000000
      length 2.952750
      axis 0.0 0.0 0.0 xyz
      dof rx ry rz
   end
   begin
      id 12
      name Spine
      direction 0.000000 1.000000 0.000000
      length 0.000000
      axis 0.0 0.0 0.0 xyz
      dof rx ry rz
   end
   begin
      id 13
      name Spine_dum1
      direction 0.000000 1.000000 0.000000
      length 10.941760
      axis 0.0 0.0 0.0 xyz
   end
   begin
      id 14
      name Spine_dum2
      direction 0.000000 1.000000 0.000000
      length 10.941760
      axis 0.0 0.0 0.0 xyz
   end
   begin
      id 15
      name Spine_dum3
      direction 0.000000 1.000000 0.000000
      length 16.646042
      axis 0.0 0.0 0.0 xyz
   end
   begin
      id 16
      name RightShoulder
      direction -1.000000 0.000000 0.000000
      length 7.708937
      axis 0.0 0.0 90.0 xyz
      dof rx ry rz
   end
   begin
      id 17
      name RightArm
      direction -1.000000 0.000000 0.000000
      length 11.521345
      axis 0.0 0.0 90.0 xyz
      dof rx ry rz
   end
   begin
      id 18
      name RightForeArm
      direction -1.000000 0.000000 0.000000
      length 10.175898
      axis 0.0 0.0 90.0 xyz
      dof ry rz rx
   end
   begin
      id 19
      name RightHand
      direction -1.000000 0.000000 0.000000
      length 0.000000
      axis 0.0 0.0 90.0 xyz
      dof rx ry rz
   end
   begin
      id 20
      name RightHand_dum1
      direction -1.000000 0.000000 0.000000
      length 3.937000
      axis 0.0 0.0 90.0 xyz
   end
   begin
      id 21
      name RightHand_dum2
      direction 0.000000 0.000000 0.000000
      length 0.000000
      axis 0.0 0.0 90.0 xyz
   end
   begin
      id 22
      name RightHandThumb1
      direction 0.000000 0.000000 1.000000
      length 3.937000
      axis 0.0 0.0 90.0 xyz
      dof rx rz ry
   end
   begin
      id 23
      name LeftShoulder
      direction 1.000000 0.000000 0.000000
      length 7.708937
      axis 0.0 0.0 -90.0 xyz
      dof rx ry rz
   end
   begin
      id 24
      name LeftArm
      direction 1.000000 0.000000 0.000000
      length 11.521345
      axis 0.0 0.0 -90.0 xyz
      dof rx ry rz
   end
   begin
      id 25
      name LeftForeArm
      direction 1.000000 0.000000 0.000000
      length 10.175898
      axis 0.0 0.0 -90.0 xyz
      dof ry rz rx
   end
   begin
      id 26
      name LeftHand
      direction 1.000000 0.000000 0.000000
      length 0.000000
      axis 0.0 0.0 -90.0 xyz
      dof rx ry rz
   end
   begin
      id 27
      name LeftHand_dum1
      direction 1.000000 0.000000 0.000000
      length 3.937000
      axis 0.0 0.0 -90.0 xyz
   end
   begin
      id 28
      name LeftHand_dum2
      direction 0.000000 0.000000 0.000000
      length 0.000000
      axis 0.0 0.0 -90.0 xyz
   end
   begin
      id 29
      name LeftHandThumb1
      direction 0.000000 0.000000 1.000000
      length 3.937000
      axis 0.0 0.0 -90.0 xyz
      dof rx rz ry
   end
   begin
      id 30
      name Head
      direction 0.000000 1.000000 0.000000
      length 4.527550
      axis 0.0 0.0 0.0 xyz
      dof rx ry rz
   end
:hierarchy
   begin
      root RightUpLeg_dum LeftUpLeg_dum Spine_dum
      RightUpLeg_dum RightUpLeg
      LeftUpLeg_dum LeftUpLeg
      Spine_dum Spine
      RightUpLeg RightLeg
      RightLeg RightFoot
      RightFoot RightToeBase
      LeftUpLeg LeftLeg
      LeftLeg LeftFoot
      LeftFoot LeftToeBase
      Spine Spine_dum1 Spine_dum2 Spine_dum3
      Spine_dum1 RightShoulder
      Spine_dum2 LeftShoulder
      Spine_dum3 Head
      RightShoulder RightArm
      RightArm RightForeArm
      RightForeArm RightHand
      RightHand RightHand_dum1 RightHand_dum2
      RightHand_dum2 RightHandThumb1
      LeftShoulder LeftArm
      LeftArm LeftForeArm
      LeftForeArm LeftHand
      LeftHand LeftHand_dum1 LeftHand_dum2
      LeftHand_dum2 LeftHandThumb1
   end

# File created by Blade
# Date/Time:  Thu Jan 22 15:49:58 2015
# Frame Rate: 120.000 fps
#------------------------------------------------------
:FULLY-SPECIFIED
:DEGREES
1
root 3.193572 37.030799 4.997117 -6.437676 -2.657642 2.558296
RightUpLeg 14.577325 -6.092903 -6.015923
RightLeg -4.856473 -0.000000 0.000000
RightFoot -12.506086 -12.519854 16.693492
RightToeBase 14.739038 -0.000000 -0.000000
LeftUpLeg 12.959491 4.983215 1.950978
LeftLeg -2.088348 -0.000000 0.000000
LeftFoot -8.167268 8.062611 -16.324846
LeftToeBase 8.290207 -0.000000 -0.000000
Spine 10.380356 -2.845840 -4.340072
RightShoulder -1.253553 -11.971739 -27.809470
RightArm 8.517936 27.262500 30.515473
RightForeArm 4.765812 -0.000000 16.659632
RightHand 2.227276 -0.000000 7.762638
RightHandThumb1 -24.326973 -0.000000 -32.862282
LeftShoulder -21.850995 33.391510 16.361371
LeftArm 40.187926 -45.325812 -49.907215
LeftForeArm 36.292055 -0.000000 7.637136
LeftHand -15.690052 -0.000000 -8.721794
LeftHandThumb1 -26.253704 0.000000 33.147579
Head -1.928574 13.136998 4.303032
2
root 3.194339 37.030842 4.999428 -6.446968 -2.674744 2.564967
RightUpLeg 14.584673 -6.094087 -6.028666
RightLeg -4.852818 -0.000000 0.000000
RightFoot -12.501974 -12.496801 16.670525
RightToeBase 14.750890 -0.000000 -0.000000
LeftUpLeg 12.967563 5.002782 1.940565
LeftLeg -2.071576 -0.000000 0.000000
LeftFoot -8.194140 8.080379 -16.384284
LeftToeBase 8.313748 -0.000000 -0.000000
Spine 10.387504 -2.833406 -4.341074
RightShoulder -1.262624 -11.978974 -27.819024
RightArm 8.501345 27.306520 30.469736
RightForeArm 4.807139 -0.000000 16.654392
RightHand 2.277311 -0.000000 7.832321
RightHandThumb1 -24.326973 -0.000000 -32.862282
LeftShoulder -21.862809 33.386261 16.347511
LeftArm 40.194631 -45.387501 -49.893911
LeftForeArm 36.413116 -0.000000 7.618617
LeftHand -15.700567 -0.000000 -8.657457
LeftHandThumb1 -26.253704 0.000000 33.147579
Head -1.940228 13.134658 4.278420
3
root 3.193367 37.030587 5.001508 -6.449074 -2.684579 2.563180
RightUpLeg 14.587943 -6.092740 -6.026555
RightLeg -4.851759 -0.000000 0.000000
RightFoot -12.504558 -12.488988 16.677730
RightToeBase 14.765095 -0.000000 -0.000000
LeftUpLeg 12.975652 4.982278 1.944630
LeftLeg -2.076124 -0.000000 0.000000
LeftFoot -8.193927 8.081274 -16.348875
LeftToeBase 8.328597 -0.000000 -0.000000
Spine 10.390737 -2.843781 -4.341199
RightShoulder -1.273625 -12.045994 -27.803461
RightArm 8.537301 27.426596 30.423870
RightForeArm 4.824485 -0.000000 16.652476
RightHand 2.329044 -0.000000 7.895186
RightHandThumb1 -24.326973 -0.000000 -32.862282
LeftShoulder -21.876379 33.356697 16.352380
LeftArm 40.130167 -45.403347 -49.829839
LeftForeArm 36.442349 -0.000000 7.618977
LeftHand -15.628617 -0.000000 -8.729763
LeftHandThumb1 -26.253704 0.000000 33.147579
Head -1.967570 13.142291 4.256185
4
root 3.192726 37.030676 5.002826 -6.452036 -2.692882 2.558699
RightUpLeg 14.589992 -6.091709 -6.018030
RightLeg -4.853933 -0.000000 0.000000
RightFoot -12.498268 -12.474654 16.674585
RightToeBase 14.759646 -0.000000 -0.000000
LeftUpLeg 12.977960 4.995390 1.952047
LeftLeg -2.066871 -0.000000 0.000000
LeftFoot -8.188621 8.074379 -16.331374
LeftToeBase 8.330760 -0.000000 -0.000000
Spine 10.395019 -2.845495 -4.335680
RightShoulder -1.285732 -12.062704 -27.805597
RightArm 8.538734 27.461261 30.383750
RightForeArm 4.812924 0.000000 16.645810
RightHand 2.388086 -0.000000 7.912504
RightHandThumb1 -24.326973 -0.000000 -32.862282
LeftShoulder -21.881676 33.325062 16.354238
LeftArm 40.082311 -45.449922 -49.777604
LeftForeArm 36.534873 0.000000 7.616716
LeftHand -15.562776 -0.000000 -8.862646
LeftHandThumb1 -26.253704 0.000000 33.147579
Head -1.986483 13.150152 4.245143
5
root 3.191779 37.030683 5.004290 -6.453566 -2.697718 2.557979
RightUpLeg 14.592460 -6.095181 -6.012927
RightLeg -4.857194 -0.000000 0.000000
RightFoot -12.485337 -12.498085 16.643772
RightToeBase 14.723612 -0.000000 -0.000000
LeftUpLeg 12.979844 4.986833 1.952839
LeftLeg -2.062370 -0.000000 0.000000
LeftFoot -8.197195 8.086277 -16.348802
LeftToeBase 8.286307 -0.000000 -0.000000
Spine 10.396842 -2.844458 -4.337144
RightShoulder -1.300203 -12.057904 -27.814399
RightArm 8.514422 27.480612 30.356239
RightForeArm 4.817258 -0.000000 16.670092
RightHand 2.463791 -0.000000 7.922960
RightHandThumb1 -24.326973 -0.000000 -32.862282
LeftShoulder -21.884051 33.314475 16.356680
LeftArm 40.056434 -45.499049 -49.736309
LeftForeArm 36.526282 -0.000000 7.609513
LeftHand -15.531826 -0.000000 -8.986036
LeftHandThumb1 -26.253704 0.000000 33.147579
Head -2.007090 13.157142 4.230660
6
root 3.191321 37.030746 5.005061 -6.454869 -2.707779 2.554972
RightUpLeg 14.584518 -6.092520 -6.009503
RightLeg -4.837511 -0.000000 0.000000
RightFoot -12.512744 -12.475002 16.679431
RightToeBase 14.775117 -0.000000 -0.000000
LeftUpLeg 12.977785 4.994091 1.956503
LeftLeg -2.049765 -0.000000 0.000000
LeftFoot -8.211578 8.089116 -16.353883
LeftToeBase 8.310775 -0.000000 -0.000000
Spine 10.402807 -2.844176 -4.335208
RightShoulder -1.315393 -12.054565 -27.824289
RightArm 8.510290 27.453248 30.322223
RightForeArm 4.875120 0.000000 16.653634
RightHand 2.567780 -0.000000 7.893604
RightHandThumb1 -24.326973 -0.000000 -32.862282
LeftShoulder -21.900710 33.306605 16.365951
LeftArm 40.043942 -45.534173 -49.726313
LeftForeArm 36.494359 0.000000 7.602681
LeftHand -15.454541 -0.000000 -9.082197
LeftHandThumb1 -26.253704 0.000000 33.147579
Head -2.038514 13.167393 4.216287
7
root 3.190401 37.031365 5.005997 -6.453957 -2.710128 2.546646
RightUpLeg 14.568849 -6.106929 -6.002722
RightLeg -4.801014 -0.000000 0.000000
RightFoot -12.527564 -12.483272 16.692733
RightToeBase 14.756660 -0.000000 -0.000000
LeftUpLeg 12.974826 4.984156 1.963134
LeftLeg -2.039170 -0.000000 0.000000
LeftFoot -8.209529 8.097435 -16.336042
LeftToeBase 8.322352 -0.000000 -0.000000
Spine 10.403762 -2.850283 -4.328075
RightShoulder -1.321801 -12.061158 -27.821263
RightArm 8.490741 27.473283 30.275670
RightForeArm 4.921019 -0.000000 16.662894
RightHand 2.614174 -0.000000 7.950410
RightHandThumb1 -24.326973 -0.000000 -32.862282
LeftShoulder -21.895122 33.275378 16.378257
LeftArm 39.966283 -45.535815 -49.629777
LeftForeArm 36.439009 0.000000 7.584307
LeftHand -15.465890 0.000000 -9.189055
LeftHandThumb1 -26.253704 0.000000 33.147579
Head -2.059554 13.176564 4.206763
8
root 3.189179 37.031544 5.006972 -6.455356 -2.714987 2.538368
RightUpLeg 14.567740 -6.110857 -5.990575
RightLeg -4.802791 -0.000000 0.000000
RightFoot -12.495453 -12.489305 16.646650
RightToeBase 14.685712 -0.000000 -0.000000
LeftUpLeg 12.975602 4.989501 1.975273
LeftLeg -2.035748 -0.000000 0.000000
LeftFoot -8.216293 8.102530 -16.330039
LeftToeBase 8.309104 -0.000000 -0.000000
Spine 10.410291 -2.857970 -4.323260
RightShoulder -1.326235 -12.050151 -27.823564
RightArm 8.464583 27.544438 30.249043
RightForeArm 4.857394 -0.000000 16.706363
RightHand 2.578162 0.000000 7.982144
RightHandThumb1 -24.326973 -0.000000 -32.862282
LeftShoulder -21.917994 33.254497 16.390952
LeftArm 39.962382 -45.563079 -49.631796
LeftForeArm 36.376915 -0.000000 7.578413
LeftHand -15.438926 -0.000000 -9.230782
LeftHandThumb1 -26.253704 0.000000 33.147579
Head -2.087370 13.186678 4.204431
